<?xml version="1.0" standalone="no"?>
<!DOCTYPE svg PUBLIC "-//W3C//DTD SVG 20010904//EN"
 "http://www.w3.org/TR/2001/REC-SVG-20010904/DTD/svg10.dtd">
<svg version="1.0" xmlns="http://www.w3.org/2000/svg"
 width="226.000000pt" height="127.000000pt" viewBox="0 0 226.000000 127.000000"
 preserveAspectRatio="xMidYMid meet">

<g transform="translate(0.000000,127.000000) scale(0.100000,-0.100000)"
fill="#0000FF" stroke="none">
<path d="M1180 635 l0 -615 140 0 140 0 0 615 0 615 -140 0 -140 0 0 -615z"/>
<path d="M475 1120 c-133 -20 -259 -104 -337 -224 -134 -207 -94 -494 91 -658
50 -44 109 -77 185 -102 72 -24 233 -23 308 3 202 70 347 270 348 480 1 247
-187 466 -428 501 -75 11 -95 11 -167 0z m175 -368 c41 -31 70 -81 70 -124 0
-108 -90 -182 -194 -158 -65 15 -126 89 -126 155 0 57 59 133 115 148 34 10
109 -2 135 -21z"/>
<path d="M1590 840 l0 -96 55 -54 c30 -30 55 -57 55 -61 0 -4 -25 -32 -55 -62
l-55 -55 0 -96 0 -96 97 0 97 0 58 57 58 57 58 -57 58 -57 92 0 92 0 0 97 0
97 -56 57 -56 56 56 53 56 53 0 101 0 101 -97 -3 -98 -3 -56 -55 -55 -55 -51
55 -51 55 -101 3 -101 3 0 -95z"/>
</g>
</svg>
