<?xml version="1.0" standalone="no"?>
<!DOCTYPE svg PUBLIC "-//W3C//DTD SVG 20010904//EN"
 "http://www.w3.org/TR/2001/REC-SVG-20010904/DTD/svg10.dtd">
<svg version="1.0" xmlns="http://www.w3.org/2000/svg"
 width="212.000000pt" height="119.000000pt" viewBox="0 0 212.000000 119.000000"
 preserveAspectRatio="xMidYMid meet">

<g transform="translate(0.000000,119.000000) scale(0.100000,-0.100000)"
fill="#000000" stroke="none">
<path d="M1100 595 l0 -575 135 0 135 0 0 575 0 575 -135 0 -135 0 0 -575z"/>
<path d="M397 1056 c-209 -60 -357 -251 -357 -462 0 -74 29 -178 66 -241 91
-151 236 -233 414 -233 177 0 328 86 417 238 31 52 63 169 63 227 0 202 -131
390 -318 457 -72 27 -216 33 -285 14z m192 -336 c27 -13 46 -33 60 -63 26 -54
26 -77 1 -128 -55 -107 -209 -106 -262 1 -23 47 -22 75 3 127 37 76 121 103
198 63z"/>
<path d="M1500 788 l0 -92 52 -53 52 -53 -52 -53 -52 -53 0 -89 0 -90 91 2 92
1 51 51 52 51 49 -50 49 -50 98 0 98 0 0 88 0 88 -55 54 -55 54 55 56 55 56 0
87 0 87 -92 0 -92 0 -53 -52 -53 -52 -53 52 -53 52 -92 0 -92 0 0 -92z"/>
</g>
</svg>
